HIERARCHY
ROOT Hips
{
    OFFSET 12.691420555114746 82.46853256225586 -16.766559600830078
    CHANNELS 6 Xposition Yposition Zposition Zrotation Xrotation Yrotation
    JOINT RightUpLeg
    {
        OFFSET -12.691420555114746 0.0 0.0
        CHANNELS 3 Zrotation Xrotation Yrotation
        JOINT RightLeg
        {
            OFFSET 0.0 -40.5521354675293 0.0
            CHANNELS 3 Zrotation Xrotation Yrotation
            JOINT RightFoot
            {
                OFFSET 0.0 -41.91639709472656 0.0
                CHANNELS 3 Zrotation Xrotation Yrotation
                End Site
                {
                    OFFSET 0.0 0.0 16.766559600830078
                }
            }
        }
    }
    JOINT LeftUpLeg
    {
        OFFSET 12.691420555114746 0.0 0.0
        CHANNELS 3 Zrotation Xrotation Yrotation
        JOINT LeftLeg
        {
            OFFSET 0.0 -40.5521354675293 0.0
            CHANNELS 3 Zrotation Xrotation Yrotation
            JOINT LeftFoot
            {
                OFFSET 0.0 -41.91639709472656 0.0
                CHANNELS 3 Zrotation Xrotation Yrotation
                End Site
                {
                    OFFSET 0.0 0.0 16.766559600830078
                }
            }
        }
    }
    JOINT Spine
    {
        OFFSET 0.0 22.673959732055664 0.0
        CHANNELS 3 Zrotation Xrotation Yrotation
        JOINT Spine3
        {
            OFFSET 0.0 22.936477661132812 0.0
            CHANNELS 3 Zrotation Xrotation Yrotation
            JOINT Neck
            {
                OFFSET 0.0 8.204046249389648 0.0
                CHANNELS 3 Zrotation Xrotation Yrotation
                End Site
                {
                    OFFSET 0.0 3.281618595123291 0.0
                }
            }
            JOINT LeftArm
            {
                OFFSET 13.114542007446289 0.0 0.0
                CHANNELS 3 Zrotation Xrotation Yrotation
                JOINT LeftForeArm
                {
                    OFFSET 25.69754409790039 0.0 0.0
                    CHANNELS 3 Zrotation Xrotation Yrotation
                    JOINT LeftHand
                    {
                        OFFSET 18.111053466796875 0.0 0.0
                        CHANNELS 3 Zrotation Xrotation Yrotation
                        End Site
                        {
                            OFFSET 7.24442195892334 0.0 0.0
                        }
                    }
                }
            }
            JOINT RightArm
            {
                OFFSET -13.114542007446289 0.0 0.0
                CHANNELS 3 Zrotation Xrotation Yrotation
                JOINT RightForeArm
                {
                    OFFSET -25.69754409790039 0.0 0.0
                    CHANNELS 3 Zrotation Xrotation Yrotation
                    JOINT RightHand
                    {
                        OFFSET -18.111053466796875 0.0 0.0
                        CHANNELS 3 Zrotation Xrotation Yrotation
                        End Site
                        {
                            OFFSET -7.24442195892334 0.0 0.0
                        }
                    }
                }
            }
        }
    }
}
MOTION
Frames: 12
Frame Time: 0.03333333333333333
-5.441477333079092e-05 62.528621673583984 -0.0008504268480464816 19.282271495565823 -7.591976907422861 71.63425545692806 12.752273906313397 -47.292869482799375 6.765934760115795 39.19443726465945 81.50816756426724 -45.089743313152 -3.975693351829396e-16 -1.3914926731402884e-15 -4.124781852522998e-15 -3.38448434140233 -42.805035987973596 -4.721598837697703 58.617794509100534 79.48547246763518 -53.068635516314565 1.5902773407317584e-15 -3.862168010793889e-32 -2.782985346280577e-15 7.050815561395637 23.064706304265165 -1.3675847064832558 -5.2907699807226574e-08 -2.2335204725558953e-07 6.008909534379336 -1.7261185889258808 -5.532897458135467 176.32534699825854 110.61821808162111 -15.278883309087561 -150.29687014836094 4.085960100238174e-06 -9.722219564219368e-07 72.58094434452512 -3.1805546814635168e-15 3.975693351829396e-16 1.1034765745125397e-32 -121.107398517268 0.512828364413074 132.3400547939038 -6.258277621752023e-07 2.1597253540802603e-06 -62.33875067277844 -3.1805546814635168e-15 0.0 0.0
-4.589071613736451e-05 62.52864456176758 -0.0008595103281550109 19.24727365332497 -7.648510495977257 71.7160235579743 12.789758439078053 -47.321274572460815 6.8112791031730024 39.94748996728108 81.59249344916897 -45.88423939821259 -7.951386703658792e-16 -1.3914926731402886e-15 -5.466578358765419e-15 -3.369897104472508 -43.07486031918944 -4.721956209679879 60.14484549965854 79.78283861225103 -54.67674293581534 -3.975693351829396e-16 1.987846675914698e-16 -2.1866313435061676e-15 7.152534132085694 22.98122721726894 -1.4103676403230871 9.036202946693266e-09 -8.083832850176985e-08 5.920991289621068 -1.6858196354767514 -5.815048590208993 176.59771900064993 110.54720391295177 -15.008161275340752 -150.14989533646178 8.861786262785141e-07 -8.675881109057147e-07 72.50021426542406 6.361109362927032e-15 5.963540027744093e-15 -3.3104297235376187e-31 -121.01813745729157 0.6952475595065686 132.38819004793382 2.7985542533558285e-06 2.2031227003363923e-06 -62.477567740701346 0.0 0.0 1.5902773407317584e-15
-3.33576972479932e-05 62.528629302978516 -0.0008491438929922879 19.1752972442487 -7.466989207112898 71.72091415407716 12.710530287352581 -47.55433313050402 6.937269301499821 41.254267518670865 81.64821251589322 -47.258666449173994 -3.975693351829396e-16 1.5902773407317584e-15 2.53450451179124e-15 -3.443991598089813 -43.28392930135907 -4.6437203566605065 60.654057424511294 79.87186122637955 -55.31560063476045 -1.590277340731758e-15 1.793149433582877e-32 -1.2921003393445534e-15 6.887905485673108 22.759597095614076 -1.3778445313062286 6.871926395105165e-08 -4.808883163587121e-07 5.896589773941601 -1.9999188263884307 -6.152135193585338 176.81228467724833 110.97410537596426 -14.936345460210118 -150.084892182406 -1.4508824540162669e-06 -4.545209139220604e-06 72.61430540534495 -2.2069531490250793e-32 3.975693351829396e-16 6.3611093629270335e-15 -120.7122755878305 0.7946633592770654 132.24541760507628 -3.94883748949598e-06 -3.397054079336801e-06 -62.69709124468712 4.4139062980501586e-32 6.361109362927033e-15 -7.951386703658791e-16
-1.871781023510266e-05 62.52861022949219 -0.000842480396386236 19.05052143088193 -7.383723833519058 71.7249367331261 12.552329163031585 -47.698813102879704 6.839521424996599 40.93042328738798 81.65587564611587 -46.81609557090873 -1.5902773407317582e-15 -1.9878466759146985e-16 4.522351187705937e-15 -4.044392752199165 -43.547473700948814 -5.078870381048826 61.06841322960272 79.4864784017581 -55.28954518475329 0.0 0.0 -3.0811623476677818e-15 6.764840028858169 22.572755736377363 -1.3221952244361697 1.93913049871203e-08 4.9284322849256875e-08 5.872724440963485 -2.0764956163758357 -6.608110635032466 176.9680407585402 111.13390128304046 -15.215665333856773 -150.37437228805277 -6.699796019359686e-06 3.8112119032493078e-06 72.24626514937628 0.0 3.975693351829397e-16 0.0 -120.55010372057791 0.7405418746663958 132.2081546467604 -1.2535132513642863e-06 2.5338535028190113e-07 -62.50928815285503 1.5902773407317582e-15 -1.1034765745125397e-32 -7.951386703658791e-16
-2.5893517886288464e-05 62.52861785888672 -0.0008472201297990978 18.941997446527093 -7.4048682632492016 71.79537055623616 12.503627622081602 -47.81853316350124 6.694920138620379 41.679085451964056 81.54248343608602 -47.4025091222434 0.0 0.0 -1.9878466759146976e-15 -3.6811580805834723 -43.677156959274946 -4.9503454614040034 61.552595767714436 79.4775508737229 -55.93392638091208 2.782985346280578e-15 3.379339349054987e-15 -1.6896696745274936e-15 6.981897096388447 22.35087657713167 -1.3311036581810198 -9.599540443287499e-08 -1.1060862855156948e-07 5.917584658452531 -2.2877850134679467 -7.032043284994162 176.86494273913024 111.13284685252454 -15.588675092134826 -150.52201279404767 -3.83445081716764e-06 -1.6054678030457158e-06 72.19107751509456 -3.1805546814635164e-15 -6.361109362927033e-15 -1.7655625192200634e-31 -120.08441764354819 1.1224907032623381 132.28842145878596 -4.890070175680945e-06 -8.93976693993813e-07 -63.258725917314266 0.0 0.0 -7.951386703658792e-16
-2.4637098249513656e-05 62.528621673583984 -0.0008449229644611478 18.79117519232126 -7.406005024933332 71.84663252295238 12.401062450522007 -48.07883799165813 6.693603885412935 42.29176156334259 81.76632830567767 -47.976450855536804 0.0 0.0 1.6896696745274934e-15 -4.030901561203381 -43.95103629228392 -5.1746152506874585 62.233884240516076 79.4047890272168 -56.43146533167531 1.9878466759146976e-15 -3.1805546814635164e-15 1.0933156717530838e-15 7.02789519348311 22.13927401289766 -1.360936491157726 -7.076348996459545e-08 9.322026024277645e-08 6.025403332474596 -2.226127208502534 -7.800517151479288 177.03429247366623 110.93236838681185 -14.97965595828389 -150.81174588917239 -2.634107347127763e-06 2.3280827866064635e-06 72.04216453818218 0.0 0.0 0.0 -119.80777732599863 1.225212944901609 132.26060005628545 6.644737382333363e-07 2.8230022180721068e-06 -63.21377113125817 -3.1805546814635168e-15 -6.3611093629270335e-15 7.95138670365879e-16
-2.075837619486265e-05 62.528621673583984 -0.0008450782625004649 18.808831297478317 -7.226165954845641 71.6991777449674 11.967283048693021 -48.168036981207656 6.329634525288381 41.31594341077653 81.87361830950135 -46.66818551036374 0.0 0.0 -1.341796506242421e-15 -4.1883178580510085 -43.90899701901057 -5.324214541338852 59.37203823455729 79.2167652327312 -53.37339666631676 -3.975693351829396e-16 5.17254644302753e-34 -1.4908850069360235e-16 6.8987521399750165 21.980812547312038 -1.2799080517742156 -4.182105348405482e-07 -7.439526450542933e-08 5.93451741302654 -2.232041661089341 -8.103424749893135 176.65175697044842 111.11585596998806 -14.708246111583374 -151.0892947526946 -6.716897952702272e-06 2.08240219990299e-06 70.49630913617898 -1.5902773407317582e-15 -5.9635400277440935e-15 3.1805546814635168e-15 -119.6895496836937 1.0656030741644849 132.38900563560438 -2.4942005284125745e-06 -3.0798336119507163e-07 -63.86377359257211 -3.1805546814635168e-15 6.3611093629270335e-15 -7.95138670365879e-16
-5.533358853426762e-05 62.52859878540039 -0.0008711469708941877 18.90780149489277 -6.826760883554837 71.9679556745478 11.271145546410803 -48.183371651483384 5.938327065452919 40.23683350651154 81.57664643333193 -45.2187416883504 -1.789062008323228e-15 -1.101752392364864e-31 7.056855699497176e-15 -4.395479094686432 -44.18728519697162 -5.3747058775581165 59.74336764797708 79.45554449532374 -53.77017837628777 3.975693351829398e-16 3.379339349054987e-15 -2.4848083448933734e-15 6.684679665405277 21.952682841284265 -1.2631681640866081 -1.1516847274537505e-08 -2.1095622542312786e-08 5.8899337064107335 -2.077732719946566 -8.451650445738768 176.57450077202446 111.96166371694709 -14.847256512546126 -150.85879979538115 1.750050205766558e-06 -3.563633382336943e-06 68.62254012558378 1.5902773407317584e-15 6.3611093629270335e-15 -8.827812596100317e-32 -120.10522462632753 0.9416812660333488 132.5774250965872 -9.644808430828747e-07 -1.6051349242709048e-06 -63.841334175168114 0.0 0.0 1.5902773407317584e-15
-7.276867108885199e-05 62.52859878540039 -0.0008837239583954215 18.918645727090738 -6.721465674536782 71.96550225271035 11.061235300295497 -47.987730650274095 5.813415276154531 39.584178196664475 81.4071856366664 -44.478601942338486 -3.975693351829396e-16 -2.5862732215137646e-33 7.454425034680117e-16 -4.0524038396535556 -43.957035741286376 -5.065205446326534 58.77449811213667 79.39338851172845 -53.06491302693499 -1.1927080055488192e-15 -6.413957589354137e-32 6.162324695335565e-15 6.76321642437558 21.934290760323126 -1.3168040256693483 -2.7554518680220975e-08 -3.100023920383524e-08 6.080138111397459 -2.6700172901439783 -8.621440118416825 176.99791409359074 112.29363886842161 -14.959375723689428 -150.30780139292727 -8.230358004626628e-07 -4.588979060445792e-07 67.4843708350493 0.0 6.3611093629270335e-15 0.0 -120.87302868887384 0.9220813229449262 132.78832539647095 -6.264775557200299e-06 1.5680827680450876e-06 -63.81925042578976 0.0 -6.3611093629270335e-15 0.0
-6.443970050895587e-05 62.528621673583984 -0.0008864761330187321 19.032290124579003 -6.980835040142209 71.97075598646688 11.290328258975617 -47.630555811621505 5.784442205161193 37.8418013885637 81.31346005875174 -42.769404231126934 -5.963540027744096e-16 -1.5902773407317588e-15 -1.739365841425361e-15 -3.5087977844557994 -43.65926881334374 -4.8155196908487845 58.45795542968945 79.34199264116992 -52.947172379649835 7.95138670365879e-16 -2.9817700138720468e-15 -2.286023677301902e-15 7.003881645387741 22.26142548350382 -1.341731163628061 4.172224856077963e-07 -4.756336573247578e-08 5.934875273729451 -2.4157852776986264 -8.782054943144347 176.6477285706815 112.48489466493794 -15.408877306018674 -150.05620074327874 2.923294850384929e-06 2.6011051775469376e-06 68.41136347318916 1.5902773407317584e-15 6.3611093629270335e-15 -8.827812596100317e-32 -121.08603396170028 1.033510490201095 132.6635741462952 1.4938029162044293e-06 1.0980533409728714e-06 -63.75719052837368 -4.4139062980501586e-32 6.3611093629270335e-15 7.951386703658792e-16
-8.876332140062004e-05 62.528602600097656 -0.0008975090458989143 19.082219567339475 -6.85710086604254 71.92748680554767 11.219618118514594 -47.66146439280043 5.783001089193769 38.403978422130805 81.4357379175414 -43.333307846730946 1.9878466759146976e-15 -8.448492523611631e-32 -4.870224355991009e-15 -3.4569218510455135 -43.61160561030399 -4.730264729717294 57.384782118539384 79.3536249018247 -51.95080244162038 3.975693351829396e-16 -2.827658722188383e-32 -8.150171371250262e-15 6.781393167217516 22.078580625894265 -1.2718299014664962 -1.1400430747106058e-08 -1.4277271128351512e-07 5.969874715318157 -2.3708005358892263 -8.7983697827426 176.7735715957023 112.49332966824142 -15.036627776374347 -150.07880807466574 -4.168524054003075e-06 -1.9154058069966617e-06 67.38630708904041 -1.5902773407317582e-15 3.9756933518293955e-16 5.517382872562698e-33 -121.01870501718413 0.9078468021749909 132.92218656987424 1.8835900870509937e-06 -1.515257651906992e-06 -63.824342349654 0.0 0.0 -1.5902773407317584e-15
-7.671724597457796e-05 62.528629302978516 -0.0009203269728459418 19.186896584712652 -6.842064470959613 71.80672090702652 11.398361074015092 -47.37374774054218 5.839421115390258 36.970284645462776 81.17234091278456 -41.98491981052666 -3.975693351829397e-16 1.391492673140289e-15 -3.13085851456565e-15 -2.549529355999465 -43.51140126807506 -4.139090736522596 55.85011496671874 79.55336553680866 -51.029892252012544 -2.385416011097637e-15 -3.379339349054986e-15 4.572047354603804e-15 6.772119296150489 22.495822486930177 -1.2653477974510423 5.699884807246687e-07 2.2614215947407651e-07 5.982711770241508 -2.627566165106467 -9.034473794667099 176.33920177073892 113.09719888899343 -15.614474425632414 -149.54286404613205 -1.8024715528131e-06 1.7595946121627866e-06 67.53873662009691 0.0 -3.975693351829396e-16 0.0 -121.7802667852365 0.8919256017109176 132.81439530835652 -2.2358066995255036e-06 1.6611334361580178e-06 -63.961146888334554 0.0 0.0 -7.951386703658792e-16
